Coordinates
version=1
nRows=18
nColumns=63
inDegrees=yes

Units are S.I. units (second, meters, Newtons, ...)
If the header above contains a line with 'inDegrees', this indicates whether rotational values are in degrees (yes) or radians (no).

endheader
time	pelvis_tilt	pelvis_list	pelvis_rotation	pelvis_tx	pelvis_ty	pelvis_tz	hip_flexion_r	hip_adduction_r	hip_rotation_r	knee_angle_r	knee_angle_r_beta	ankle_angle_r	subtalar_angle_r	mtp_angle_r	hip_flexion_l	hip_adduction_l	hip_rotation_l	knee_angle_l	knee_angle_l_beta	ankle_angle_l	subtalar_angle_l	mtp_angle_l	L5_S1_Flex_Ext	L5_S1_Lat_Bending	L5_S1_axial_rotation	L4_L5_Flex_Ext	L4_L5_Lat_Bending	L4_L5_axial_rotation	L3_L4_Flex_Ext	L3_L4_Lat_Bending	L3_L4_axial_rotation	L2_L3_Flex_Ext	L2_L3_Lat_Bending	L2_L3_axial_rotation	L1_L2_Flex_Ext	L1_L2_Lat_Bending	L1_L2_axial_rotation	L1_T12_Flex_Ext	L1_T12_Lat_Bending	L1_T12_axial_rotation	Abs_r3	Abs_r2	Abs_r1	Abs_t1	Abs_t2	neck_flexion	neck_bending	neck_rotation	arm_flex_r	arm_add_r	arm_rot_r	elbow_flex_r	pro_sup_r	wrist_flex_r	wrist_dev_r	arm_flex_l	arm_add_l	arm_rot_l	elbow_flex_l	pro_sup_l	wrist_flex_l	wrist_dev_l
0.000000	-1.198909	-3.371764	96.879928	0.200151	1.037496	0.510836	2.125586	-2.946795	-26.380497	14.286730	0.249350	27.772634	14.318963	0.000000	4.928606	-0.780010	-13.577365	12.537397	0.218819	31.171743	17.572714	0.000000	0.244588	0.021725	-0.494447	0.454224	0.028894	-0.525350	0.401833	0.052822	-0.525350	0.279539	0.052822	-0.432641	0.227124	0.044301	-0.401738	0.139757	0.033652	-0.370835	1.747066	0.245755	-2.749966	0.000000	0.000000	21.932685	-5.107576	-16.315208	16.720077	-3.869331	52.531013	44.706519	37.565248	-2.978935	9.986032	22.796811	-3.450299	72.021602	33.452998	83.195662	-9.940555	2.675754
0.017857	-1.542501	-3.247822	97.110942	0.198992	1.037597	0.508931	1.383993	-3.242603	-26.741816	13.654519	0.238316	27.865115	15.095875	0.000000	4.332595	-0.229211	-12.161465	11.667139	0.203630	31.073924	16.577443	0.000000	0.235710	-0.000227	-0.537235	0.437737	-0.000302	-0.570813	0.387248	-0.000552	-0.570813	0.269393	-0.000552	-0.470081	0.218880	-0.000463	-0.436504	0.134685	-0.000352	-0.402927	1.683651	-0.002569	-2.987943	0.000000	0.000000	21.639727	-4.927295	-16.014253	15.956068	-3.716303	56.725681	43.736687	30.064870	-5.109366	12.019855	23.215215	-2.660358	77.491184	31.644404	88.501138	-8.181355	1.146087
0.035714	-1.810215	-3.151659	97.302011	0.198079	1.037662	0.507256	0.751883	-3.443960	-26.972511	13.054047	0.227836	27.966702	15.709290	0.000000	3.820668	0.215912	-10.904676	10.906328	0.190351	30.996960	15.659982	0.000000	0.229497	-0.016716	-0.574777	0.426200	-0.022232	-0.610700	0.377041	-0.040642	-0.610700	0.262293	-0.040642	-0.502929	0.213111	-0.034086	-0.467006	0.131135	-0.025892	-0.431082	1.639278	-0.189089	-3.196735	0.000000	0.000000	21.434195	-4.784250	-15.744429	15.212368	-3.640710	60.149939	42.838338	24.283978	-6.665274	13.428054	23.337569	-2.073661	81.624836	30.338344	91.194750	-6.676846	0.005228
0.053571	-2.007943	-3.080023	97.458734	0.197387	1.037698	0.505797	0.220343	-3.559097	-27.089672	12.485750	0.217917	28.072763	16.173394	0.000000	3.386894	0.563072	-9.798264	10.248905	0.178877	30.937488	14.821359	0.000000	0.225658	-0.028179	-0.607652	0.419070	-0.037478	-0.645630	0.370734	-0.068514	-0.645630	0.257905	-0.068514	-0.531696	0.209546	-0.057462	-0.493717	0.128941	-0.043649	-0.455739	1.611854	-0.318765	-3.379579	0.000000	0.000000	21.305204	-4.674846	-15.505996	14.493038	-3.633571	62.869663	42.010708	20.067137	-7.704571	14.277034	23.202233	-1.670110	84.559993	29.483130	91.585213	-5.405413	-0.785296
0.071429	-2.141571	-3.029667	97.586711	0.196894	1.037711	0.504539	-0.219543	-3.596244	-27.110391	11.950069	0.208568	28.178667	16.502372	0.000000	3.025342	0.819979	-8.833495	9.688814	0.169102	30.892144	14.062601	0.000000	0.223899	-0.035056	-0.636444	0.415803	-0.046624	-0.676222	0.367844	-0.085235	-0.676222	0.255894	-0.085235	-0.556889	0.207913	-0.071486	-0.517111	0.127936	-0.054301	-0.477333	1.599290	-0.396558	-3.539711	0.000000	0.000000	21.241867	-4.595489	-15.299213	13.802135	-3.685904	64.950728	41.253030	17.258912	-8.285173	14.633201	22.847565	-1.429606	86.434089	29.027077	89.981241	-4.345442	-1.263958
0.089286	-2.216990	-2.997340	97.691540	0.196576	1.037709	0.503465	-0.576689	-3.563629	-27.051759	11.447441	0.199796	28.279781	16.710413	0.000000	2.730079	0.994344	-8.001633	9.219996	0.160919	30.857564	13.384737	0.000000	0.223928	-0.037785	-0.661734	0.415856	-0.050254	-0.703093	0.367891	-0.091870	-0.703093	0.255927	-0.091870	-0.579018	0.207939	-0.077051	-0.537659	0.127952	-0.058529	-0.496301	1.599494	-0.427429	-3.680369	0.000000	0.000000	21.233297	-4.542584	-15.124340	13.143718	-3.788727	66.459012	40.564541	15.703868	-8.464992	14.562961	22.311926	-1.332048	87.384561	28.918501	86.691552	-3.475316	-1.469229
0.107143	-2.240087	-2.979793	97.778821	0.196408	1.037697	0.502561	-0.860009	-3.469482	-26.930867	10.978305	0.191608	28.371472	16.811701	0.000000	2.495174	1.093880	-7.293944	8.836395	0.154224	30.830386	12.788793	0.000000	0.225451	-0.036804	-0.684105	0.418685	-0.048950	-0.726862	0.370394	-0.089486	-0.726862	0.257668	-0.089486	-0.598592	0.209354	-0.075051	-0.555835	0.128823	-0.057010	-0.513079	1.610375	-0.416337	-3.804788	0.000000	0.000000	21.268609	-4.512537	-14.981635	12.521847	-3.933059	67.460391	39.944474	15.246569	-8.301943	14.132719	21.633675	-1.357339	87.548841	29.105714	82.024858	-2.773421	-1.439582
0.125000	-2.216752	-2.973776	97.854153	0.196367	1.037683	0.501812	-1.078418	-3.322033	-26.764806	10.543101	0.184012	28.449109	16.820424	0.000000	2.314696	1.126298	-6.701695	8.531951	0.148911	30.807246	12.275797	0.000000	0.228177	-0.032553	-0.704138	0.423747	-0.043295	-0.748147	0.374871	-0.079149	-0.748147	0.260783	-0.079149	-0.616121	0.211885	-0.066382	-0.572112	0.130380	-0.050424	-0.528104	1.629842	-0.368243	-3.916205	0.000000	0.000000	21.336915	-4.501752	-14.871359	11.940580	-4.109919	68.020741	39.392064	15.731582	-7.853940	13.408880	20.851171	-1.485378	87.064366	29.537031	76.289877	-2.218142	-1.213489
0.142857	-2.152874	-2.976040	97.923135	0.196429	1.037674	0.501203	-1.240829	-3.129511	-26.570667	10.142265	0.177016	28.508058	16.750767	0.000000	2.182714	1.099308	-6.216150	8.300609	0.144873	30.784781	11.846776	0.000000	0.231811	-0.025469	-0.722415	0.430497	-0.033874	-0.767566	0.380843	-0.061925	-0.767566	0.264937	-0.061925	-0.632113	0.215260	-0.051936	-0.586962	0.132457	-0.039451	-0.541811	1.655804	-0.288109	-4.017857	0.000000	0.000000	21.427329	-4.506634	-14.793770	11.403976	-4.310324	68.205939	38.906547	17.003470	-7.178897	12.457850	20.002774	-1.696068	86.068569	30.160767	69.795322	-1.787864	-0.829424
0.160714	-2.054340	-2.983335	97.991367	0.196571	1.037675	0.500718	-1.356158	-2.900145	-26.365541	9.776238	0.170628	28.543688	16.616917	0.000000	2.093295	1.020623	-5.828575	8.136310	0.142005	30.759628	11.502758	0.000000	0.236062	-0.015991	-0.739519	0.438391	-0.021268	-0.785739	0.387827	-0.038881	-0.785739	0.269796	-0.038881	-0.647079	0.219208	-0.032609	-0.600859	0.134886	-0.024770	-0.554639	1.686170	-0.180894	-4.112981	0.000000	0.000000	21.528966	-4.523590	-14.749129	10.916094	-4.525294	68.081861	38.487157	18.906798	-6.334727	11.346034	19.126843	-1.969308	84.698885	30.925235	62.849910	-1.460972	-0.325857
0.178571	-1.927041	-2.992412	98.064447	0.196768	1.037694	0.500342	-1.433318	-2.642166	-26.166520	9.445458	0.164854	28.551366	16.433060	0.000000	2.040509	0.897953	-5.530236	8.032997	0.140202	30.728423	11.244770	0.000000	0.240637	-0.004558	-0.756030	0.446888	-0.006062	-0.803282	0.395343	-0.011082	-0.803282	0.275024	-0.011082	-0.661526	0.223456	-0.009294	-0.614274	0.137500	-0.007060	-0.567022	1.718848	-0.051560	-4.204812	0.000000	0.000000	21.630938	-4.549024	-14.737693	10.480992	-4.745846	67.714384	38.133128	21.286132	-5.379345	10.139838	18.261738	-2.285001	83.092750	31.778750	55.762355	-1.215851	0.258738
0.196429	-1.778818	-3.002935	98.173073	0.196953	1.037688	0.500009	-1.485230	-2.368937	-26.060316	9.174052	0.160117	28.470673	16.176067	0.000000	2.024308	0.737635	-5.331060	7.994274	0.139526	30.666481	11.125984	0.000000	0.244343	0.008552	-0.777945	0.453770	0.011374	-0.826567	0.401432	0.020793	-0.826567	0.279260	0.020793	-0.680702	0.226897	0.017439	-0.632081	0.139618	0.013247	-0.583459	1.745321	0.096741	-4.326698	0.000000	0.000000	21.781649	-4.612231	-14.780270	10.144692	-4.901692	67.129780	37.737047	25.181218	-4.216006	9.066426	17.338590	-2.626061	80.675542	32.704496	49.996020	-0.979918	0.859767
0.214286	-1.620380	-3.006063	98.290840	0.197156	1.037767	0.499762	-1.517039	-2.096229	-25.994545	8.939731	0.156028	28.357698	15.937254	0.000000	2.021786	0.564895	-5.142608	7.982189	0.139315	30.558006	11.012402	0.000000	0.248997	0.021648	-0.798412	0.462413	0.028792	-0.848313	0.409078	0.052634	-0.848313	0.284579	0.052634	-0.698610	0.231219	0.044144	-0.648710	0.142277	0.033532	-0.598809	1.778563	0.244884	-4.440527	0.000000	0.000000	21.842998	-4.684097	-14.903898	9.883048	-5.064763	66.704491	37.456324	28.146189	-3.171378	8.015968	16.635997	-3.025431	78.772836	33.575140	44.648188	-0.568110	1.587506
0.232143	-1.444968	-2.978636	98.449048	0.197303	1.037963	0.499609	-1.564453	-1.810543	-26.038408	8.726489	0.152306	28.194663	15.761869	0.000000	2.022650	0.359843	-5.057949	8.018094	0.139942	30.428051	11.064902	0.000000	0.251387	0.036070	-0.818231	0.466851	0.047973	-0.869370	0.413004	0.087700	-0.869370	0.287310	0.087700	-0.715952	0.233438	0.073553	-0.664813	0.143642	0.055872	-0.613673	1.795632	0.408027	-4.550756	0.000000	0.000000	21.805177	-4.715843	-15.066529	9.658619	-5.220521	66.241309	37.355081	30.104910	-2.506178	7.131982	16.279861	-3.296992	78.021761	34.174411	40.099466	-0.250010	2.101758
0.250000	-1.260328	-2.942032	98.643260	0.197370	1.038229	0.499545	-1.599679	-1.532078	-26.178906	8.560086	0.149402	28.000640	15.632697	0.000000	2.047231	0.140706	-5.021862	8.099106	0.141356	30.291176	11.215667	0.000000	0.253535	0.051146	-0.840431	0.470840	0.068024	-0.892958	0.416533	0.124356	-0.892958	0.289765	0.124356	-0.735377	0.235433	0.104297	-0.682850	0.144870	0.079225	-0.630323	1.810977	0.578573	-4.674224	0.000000	0.000000	21.704239	-4.755285	-15.290292	9.502993	-5.357860	65.807733	37.356166	31.635317	-2.094523	6.438554	16.191773	-3.419718	78.249715	34.509460	36.445256	-0.079621	2.372277
0.267857	-1.070074	-2.896093	98.854186	0.197387	1.038529	0.499523	-1.629253	-1.258977	-26.334190	8.431710	0.147161	27.787511	15.470940	0.000000	2.092275	-0.093490	-5.045324	8.226921	0.143587	30.178004	11.473564	0.000000	0.254698	0.066335	-0.858296	0.472999	0.088225	-0.911940	0.418443	0.161286	-0.911940	0.291094	0.161286	-0.751009	0.236512	0.135270	-0.697366	0.145534	0.102753	-0.643722	1.819281	0.750393	-4.773586	0.000000	0.000000	21.568657	-4.805702	-15.608680	9.387649	-5.482037	65.356547	37.449473	32.869876	-1.890746	5.918713	16.295923	-3.449935	79.037195	34.690215	33.784011	-0.045596	2.532949
0.285714	-0.904128	-2.835816	99.087361	0.197370	1.038864	0.499481	-1.686889	-1.012500	-26.512684	8.302513	0.144906	27.543988	15.303926	0.000000	2.119529	-0.300043	-5.032019	8.340921	0.145577	30.055635	11.728794	0.000000	0.254675	0.079376	-0.884360	0.472956	0.105570	-0.939633	0.418405	0.192994	-0.939633	0.291068	0.192994	-0.773815	0.236491	0.161863	-0.718543	0.145521	0.122953	-0.663270	1.819115	0.897914	-4.918547	0.000000	0.000000	21.397541	-4.772555	-15.787100	9.342278	-5.548959	64.955734	37.510554	34.290512	-1.654621	5.668239	16.493391	-3.523941	79.842202	34.872511	31.742672	0.038961	2.726172
0.303571	-0.758992	-2.768691	99.329295	0.197312	1.039197	0.499414	-1.752272	-0.800850	-26.726698	8.204464	0.143195	27.299825	15.150245	0.000000	2.148458	-0.491492	-5.084089	8.472889	0.147880	29.980976	12.100868	0.000000	0.254111	0.090551	-0.914220	0.471909	0.120433	-0.971359	0.417479	0.220166	-0.971359	0.290423	0.220166	-0.799943	0.235967	0.184652	-0.742804	0.145199	0.140264	-0.685665	1.815088	1.024332	-5.084618	0.000000	0.000000	21.189779	-4.700575	-15.889723	9.351482	-5.588855	64.642564	37.599141	35.449372	-1.509547	5.602277	16.710969	-3.590144	80.449018	34.961804	31.327822	0.045568	2.747415
